# xmcd
#
# Track frame offsets:
#	150
#	13769
#	28599
#	46384
#	62504
#	76038
#	88797
#	103020
#	117658
#	132823
#	149003
#	166117
#	182475
#	195343
#	213238
#	229275
#	252446
#	267069
#
# Disc length: 3763 seconds
#
# Revision: 3
# Processed by: cddbd v1.5.1PL0 Copyright (c) Steve Scherf et al.
# Submitted via: audiograbber 1.83.01
#
DISCID=f20eb112
DTITLE=2004-06 Country Radio - 2004-06 Country Radio
DYEAR=2004
DGENRE=Country
TTITLE0=Jimmy Buffett - Hey Good Lookin'
TTITLE1=Brad Cotter - I Meant o
TTITLE2=Kenny Chesney - I Go Back
TTITLE3=Blue County - That's Cool
TTITLE4=Buddy Jewell - One Step At A Time
TTITLE5=Travis Tritt - The Girl's Gone Wild
TTITLE6=Keith Bryant - Ridin' With The Legend
TTITLE7=Lisa Brokop - Wildflower
TTITLE8=Carolyn Dawn Johnson - Die Of A Broken Heart
TTITLE9=Scotty Emerick - The Watch
TTITLE10=Katrina Elam - I Won't Say Goodbye
TTITLE11=Rushlow - Sweet Summer Rain
TTITLE12=Joni Harms - Cowboy Up
TTITLE13=King Wilkie - Goodbye So Long
TTITLE14=Katy Kiefer - Little Man
TTITLE15=Jim Carrick - Immigrant Eyes
TTITLE16=Teresa - Brave New Girls (Cady's Song)
TTITLE17=Deirdre Hughes - All You've Got Is Now
EXTD=
EXTT0=
EXTT1=
EXTT2=
EXTT3=
EXTT4=
EXTT5=
EXTT6=
EXTT7=
EXTT8=
EXTT9=
EXTT10=
EXTT11=
EXTT12=
EXTT13=
EXTT14=
EXTT15=
EXTT16=
EXTT17=
PLAYORDER=
